<svg width="152" height="68" viewBox="0 0 152 68" fill="none" xmlns="http://www.w3.org/2000/svg">
<rect width="152" height="24" rx="2" fill="#6E6B6B"/>
<rect x="24" width="68" height="24" rx="2" transform="rotate(90 24 0)" fill="#6E6B6B"/>
<mask id="path-3-inside-1_748_3628" fill="white">
<path d="M94 24H129V57C129 58.1046 128.105 59 127 59H96C94.8954 59 94 58.1046 94 57V24Z"/>
</mask>
<path d="M94 24H129V57C129 58.1046 128.105 59 127 59H96C94.8954 59 94 58.1046 94 57V24Z" fill="#D9D9D9"/>
<path d="M94 24H129H94ZM129 59H94H129ZM96 59C94.7574 59 93.75 57.9926 93.75 56.75V24H94.25V57C94.25 58.1046 95.0335 59 96 59ZM129 24V59V24Z" fill="#9F9F9F" mask="url(#path-3-inside-1_748_3628)"/>
<rect x="152" width="68" height="24" rx="2" transform="rotate(90 152 0)" fill="#6E6B6B"/>
<line x1="57.125" y1="24" x2="57.125" y2="59" stroke="#494949" stroke-width="0.25"/>
<mask id="path-7-inside-2_748_3628" fill="white">
<path d="M24 24H59V57C59 58.1046 58.1046 59 57 59H24V24Z"/>
</mask>
<path d="M24 24H59V57C59 58.1046 58.1046 59 57 59H24V24Z" fill="#D9D9D9"/>
<path d="M24 24H59H24ZM59 59H24H59ZM24 59V24V59ZM59.25 24V56.75C59.25 57.9926 58.2426 59 57 59C57.9665 59 58.75 58.1046 58.75 57V24H59.25Z" fill="#9F9F9F" mask="url(#path-7-inside-2_748_3628)"/>
<mask id="path-9-inside-3_748_3628" fill="white">
<path d="M59 24H94V57C94 58.1046 93.1046 59 92 59H61C59.8954 59 59 58.1046 59 57V24Z"/>
</mask>
<path d="M59 24H94V57C94 58.1046 93.1046 59 92 59H61C59.8954 59 59 58.1046 59 57V24Z" fill="#D9D9D9"/>
<path d="M59 24H94H59ZM94 59H59H94ZM61 59C59.7574 59 58.75 57.9926 58.75 56.75V24H59.25V57C59.25 58.1046 60.0335 59 61 59ZM94.25 24V56.75C94.25 57.9926 93.2426 59 92 59C92.9665 59 93.75 58.1046 93.75 57V24H94.25Z" fill="#9F9F9F" mask="url(#path-9-inside-3_748_3628)"/>
</svg>
