<svg xmlns="http://www.w3.org/2000/svg" width="152" height="68" fill="none" viewBox="0 0 152 68"><rect width="152" height="24" fill="#6E6B6B" rx="2"/><rect width="68" height="24" x="24" fill="#6E6B6B" rx="2" transform="rotate(90 24 0)"/><mask id="path-3-inside-1_748_3628" fill="#fff"><path d="M94 24H129V57C129 58.1046 128.105 59 127 59H96C94.8954 59 94 58.1046 94 57V24Z"/></mask><path fill="#D9D9D9" d="M94 24H129V57C129 58.1046 128.105 59 127 59H96C94.8954 59 94 58.1046 94 57V24Z"/><path fill="#9F9F9F" d="M94 24H129H94ZM129 59H94H129ZM96 59C94.7574 59 93.75 57.9926 93.75 56.75V24H94.25V57C94.25 58.1046 95.0335 59 96 59ZM129 24V59V24Z" mask="url(#path-3-inside-1_748_3628)"/><rect width="68" height="24" x="152" fill="#6E6B6B" rx="2" transform="rotate(90 152 0)"/><line x1="57.125" x2="57.125" y1="24" y2="59" stroke="#494949" stroke-width=".25"/><mask id="path-7-inside-2_748_3628" fill="#fff"><path d="M24 24H59V57C59 58.1046 58.1046 59 57 59H24V24Z"/></mask><path fill="#D9D9D9" d="M24 24H59V57C59 58.1046 58.1046 59 57 59H24V24Z"/><path fill="#9F9F9F" d="M24 24H59H24ZM59 59H24H59ZM24 59V24V59ZM59.25 24V56.75C59.25 57.9926 58.2426 59 57 59C57.9665 59 58.75 58.1046 58.75 57V24H59.25Z" mask="url(#path-7-inside-2_748_3628)"/><mask id="path-9-inside-3_748_3628" fill="#fff"><path d="M59 24H94V57C94 58.1046 93.1046 59 92 59H61C59.8954 59 59 58.1046 59 57V24Z"/></mask><path fill="#D9D9D9" d="M59 24H94V57C94 58.1046 93.1046 59 92 59H61C59.8954 59 59 58.1046 59 57V24Z"/><path fill="#9F9F9F" d="M59 24H94H59ZM94 59H59H94ZM61 59C59.7574 59 58.75 57.9926 58.75 56.75V24H59.25V57C59.25 58.1046 60.0335 59 61 59ZM94.25 24V56.75C94.25 57.9926 93.2426 59 92 59C92.9665 59 93.75 58.1046 93.75 57V24H94.25Z" mask="url(#path-9-inside-3_748_3628)"/></svg>