<svg xmlns="http://www.w3.org/2000/svg" width="100" height="100" fill="none" viewBox="0 0 100 100"><rect width="100" height="100" fill="#262121"/><g clip-path="url(#clip0_0_1)"><rect width="634" height="634" fill="#fff" transform="translate(-360 -178)"/><path fill="#101010" stroke="#101010" d="M-44.5 -177.5H273.5V455.5H-44.5V-177.5Z"/><circle cx="-11.5" cy="73.5" r="20.5" fill="#C5C5C5" stroke="#EAEAEA" stroke-width="2"/><circle cx="-11.5" cy="22.5" r="20.5" fill="#C5C5C5" stroke="#EAEAEA" stroke-width="2"/><circle cx="112.5" cy="22.5" r="20.5" fill="#C5C5C5" stroke="#EAEAEA" stroke-width="2"/><circle cx="112.5" cy="74.5" r="20.5" fill="#C5C5C5" stroke="#EAEAEA" stroke-width="2"/><rect width="100" height="100" fill="#D9D9D9" rx="4"/><circle cx="25.5" cy="25.5" r="13.5" fill="#fff"/><circle cx="25.5" cy="25.5" r="10.658" fill="url(#paint0_radial_0_1)"/><circle cx="25.5" cy="66.5" r="13.5" fill="#fff"/><circle cx="25.5" cy="66.5" r="10.658" fill="url(#paint1_radial_0_1)"/><circle cx="73.5" cy="66.5" r="13.5" fill="#fff"/><circle cx="73.5" cy="66.5" r="10.658" fill="url(#paint2_radial_0_1)"/><circle cx="72.5" cy="25.5" r="13.5" fill="#fff"/><circle cx="72.5" cy="25.5" r="10.658" fill="url(#paint3_radial_0_1)"/><path fill="#fff" fill-rule="evenodd" d="M69.8577 9C69.5145 9.5826 68.5885 10 67.5 10C66.1193 10 65 9.32843 65 8.5C65 7.67157 66.1193 7 67.5 7C68.5885 7 69.5145 7.4174 69.8577 8H79.5C79.7761 8 80 8.22386 80 8.5C80 8.77614 79.7761 9 79.5 9H69.8577Z" clip-rule="evenodd"/><path fill="#fff" fill-rule="evenodd" d="M69.8577 49C69.5145 49.5826 68.5885 50 67.5 50C66.1193 50 65 49.3284 65 48.5C65 47.6716 66.1193 47 67.5 47C68.5885 47 69.5145 47.4174 69.8577 48H79.5C79.7761 48 80 48.2239 80 48.5C80 48.7761 79.7761 49 79.5 49H69.8577Z" clip-rule="evenodd"/><path fill="#fff" fill-rule="evenodd" d="M28.1423 42C28.4855 41.4174 29.4115 41 30.5 41C31.8807 41 33 41.6716 33 42.5C33 43.3284 31.8807 44 30.5 44C29.4115 44 28.4855 43.5826 28.1423 43L18.5 43C18.2239 43 18 42.7761 18 42.5C18 42.2239 18.2239 42 18.5 42L28.1423 42Z" clip-rule="evenodd"/><path fill="#fff" fill-rule="evenodd" d="M28.1423 84C28.4855 83.4174 29.4115 83 30.5 83C31.8807 83 33 83.6716 33 84.5C33 85.3284 31.8807 86 30.5 86C29.4115 86 28.4855 85.5826 28.1423 85L18.5 85C18.2239 85 18 84.7761 18 84.5C18 84.2239 18.2239 84 18.5 84L28.1423 84Z" clip-rule="evenodd"/><path fill="#fff" fill-rule="evenodd" d="M28.1423 8C28.4855 7.4174 29.4115 7 30.5 7C31.5885 7 32.5145 7.4174 32.8577 8H30V8.25H32.9654C32.9882 8.3313 33 8.41482 33 8.5C33 8.67532 32.9499 8.84361 32.8577 9H30V9.25H32.6655C32.2333 9.69835 31.4254 10 30.5 10C29.4115 10 28.4855 9.5826 28.1423 9L18.5 9C18.2239 9 18 8.77614 18 8.5C18 8.22386 18.2239 8 18.5 8L28.1423 8Z" clip-rule="evenodd"/><path fill="#fff" fill-rule="evenodd" d="M28.1423 50C28.4855 49.4174 29.4115 49 30.5 49C31.5885 49 32.5145 49.4174 32.8577 50H30V50.25H32.9654C32.9882 50.3313 33 50.4148 33 50.5C33 50.6753 32.9499 50.8436 32.8577 51H30V51.25H32.6655C32.2333 51.6984 31.4254 52 30.5 52C29.4115 52 28.4855 51.5826 28.1423 51L18.5 51C18.2239 51 18 50.7761 18 50.5C18 50.2239 18.2239 50 18.5 50L28.1423 50Z" clip-rule="evenodd"/><path fill="#fff" fill-rule="evenodd" d="M69.8577 43C69.5145 43.5826 68.5885 44 67.5 44C66.4115 44 65.4855 43.5826 65.1423 43L68 43L68 42.75L65.0346 42.75C65.0118 42.6687 65 42.5852 65 42.5C65 42.3247 65.0501 42.1564 65.1423 42L68 42L68 41.75L65.3345 41.75C65.7667 41.3016 66.5746 41 67.5 41C68.5885 41 69.5145 41.4174 69.8577 42L79.5 42C79.7761 42 80 42.2239 80 42.5C80 42.7761 79.7761 43 79.5 43L69.8577 43Z" clip-rule="evenodd"/><path fill="#fff" fill-rule="evenodd" d="M69.8577 84C69.5145 84.5826 68.5885 85 67.5 85C66.4115 85 65.4855 84.5826 65.1423 84L68 84L68 83.75L65.0346 83.75C65.0118 83.6687 65 83.5852 65 83.5C65 83.3247 65.0501 83.1564 65.1423 83L68 83L68 82.75L65.3345 82.75C65.7667 82.3016 66.5746 82 67.5 82C68.5885 82 69.5145 82.4174 69.8577 83L79.5 83C79.7761 83 80 83.2239 80 83.5C80 83.7761 79.7761 84 79.5 84L69.8577 84Z" clip-rule="evenodd"/></g><defs><radialGradient id="paint0_radial_0_1" cx="0" cy="0" r="1" gradientTransform="translate(25.4997 25.5002) rotate(90) scale(10.6579)" gradientUnits="userSpaceOnUse"><stop stop-color="#fff"/><stop offset="1" stop-color="#F2EFEF"/></radialGradient><radialGradient id="paint1_radial_0_1" cx="0" cy="0" r="1" gradientTransform="translate(25.4997 66.5002) rotate(90) scale(10.6579)" gradientUnits="userSpaceOnUse"><stop stop-color="#fff"/><stop offset="1" stop-color="#F2EFEF"/></radialGradient><radialGradient id="paint2_radial_0_1" cx="0" cy="0" r="1" gradientTransform="translate(73.4997 66.5002) rotate(90) scale(10.6579)" gradientUnits="userSpaceOnUse"><stop stop-color="#fff"/><stop offset="1" stop-color="#F2EFEF"/></radialGradient><radialGradient id="paint3_radial_0_1" cx="0" cy="0" r="1" gradientTransform="translate(72.4997 25.5002) rotate(90) scale(10.6579)" gradientUnits="userSpaceOnUse"><stop stop-color="#fff"/><stop offset="1" stop-color="#F2EFEF"/></radialGradient><clipPath id="clip0_0_1"><rect width="634" height="634" fill="#fff" transform="translate(-360 -178)"/></clipPath></defs></svg>