<svg xmlns="http://www.w3.org/2000/svg" width="59" height="64" fill="none" viewBox="0 0 59 64"><rect width="3.66" height="44.275" fill="#707070" rx="1.83" transform="matrix(-0.728297 -0.685262 0.582222 -0.81303 32.6523 48.8149)"/><rect width="3.912" height="47.083" fill="#707070" rx="1.956" transform="matrix(-0.657395 0.753546 0.657396 0.753546 27.8945 12.9429)"/><rect width="51.116" height="25.654" x="24.49" y="57.188" fill="#C5C5C5" stroke="#707070" stroke-width="3" rx="12.827" transform="rotate(-90 24.4902 57.1885)"/><rect width="4.582" height="25.986" x="24.656" y="63.326" fill="#707070" rx="2" transform="rotate(-90 24.6562 63.3262)"/><rect width="4.582" height="25.986" fill="#707070" rx="2" transform="matrix(4.37114e-08 1 1 -4.37114e-08 25.3223 -0.000488281)"/><rect width="1.192" height="14.134" fill="#707070" rx=".596" transform="matrix(0.35784 -0.933783 0.893169 0.449721 28.6543 54.6787)"/><rect width="1.181" height="14.287" fill="#707070" rx=".591" transform="matrix(0.434956 0.900452 0.844307 -0.535859 31.3203 8.03613)"/><rect width="6.11" height="16.657" x="9.332" y="35.831" fill="#707070" rx="2" transform="rotate(-90 9.33203 35.8311)"/><rect width="48.116" height="18.656" y="57.217" fill="#707070" rx="9.328" transform="rotate(-90 0 57.2168)"/><rect width="48.116" height="17.99" x="3.332" y="57.217" fill="#C5C5C5" rx="8.995" transform="rotate(-90 3.33203 57.2168)"/></svg>