<svg width="59" height="64" viewBox="0 0 59 64" fill="none" xmlns="http://www.w3.org/2000/svg">
<rect width="3.66026" height="44.2749" rx="1.83013" transform="matrix(-0.728297 -0.685262 0.582222 -0.81303 32.6523 48.8149)" fill="#707070"/>
<rect width="3.9118" height="47.0827" rx="1.9559" transform="matrix(-0.657395 0.753546 0.657396 0.753546 27.8945 12.9429)" fill="#707070"/>
<rect x="24.4902" y="57.1885" width="51.1163" height="25.6542" rx="12.8271" transform="rotate(-90 24.4902 57.1885)" fill="#C5C5C5" stroke="#707070" stroke-width="3"/>
<rect x="24.6562" y="63.3262" width="4.5825" height="25.9856" rx="2" transform="rotate(-90 24.6562 63.3262)" fill="#707070"/>
<rect width="4.5825" height="25.9856" rx="2" transform="matrix(4.37114e-08 1 1 -4.37114e-08 25.3223 -0.000488281)" fill="#707070"/>
<rect width="1.19204" height="14.134" rx="0.596022" transform="matrix(0.35784 -0.933783 0.893169 0.449721 28.6543 54.6787)" fill="#707070"/>
<rect width="1.1812" height="14.2871" rx="0.590599" transform="matrix(0.434956 0.900452 0.844307 -0.535859 31.3203 8.03613)" fill="#707070"/>
<rect x="9.33203" y="35.8311" width="6.11001" height="16.6575" rx="2" transform="rotate(-90 9.33203 35.8311)" fill="#707070"/>
<rect y="57.2168" width="48.1163" height="18.6564" rx="9.32818" transform="rotate(-90 0 57.2168)" fill="#707070"/>
<rect x="3.33203" y="57.2168" width="48.1163" height="17.9901" rx="8.99503" transform="rotate(-90 3.33203 57.2168)" fill="#C5C5C5"/>
</svg>
