<svg width="67" height="72" viewBox="0 0 67 72" fill="none" xmlns="http://www.w3.org/2000/svg">
<rect width="67" height="72" fill="#262121"/>
<g clip-path="url(#clip0_0_1)">
<rect width="634" height="634" transform="translate(-168 -257)" fill="white"/>
<g filter="url(#filter0_d_0_1)">
<rect width="3.66026" height="44.2749" rx="1.83013" transform="matrix(-0.728297 -0.685262 0.582222 -0.81303 36.6543 48.8149)" fill="#363636"/>
<rect width="3.9118" height="47.0827" rx="1.9559" transform="matrix(-0.657396 0.753546 0.657396 0.753546 31.8945 12.9429)" fill="#363636"/>
<rect x="28.4902" y="57.1885" width="51.1163" height="25.6542" rx="12.8271" transform="rotate(-90 28.4902 57.1885)" fill="#58595B" stroke="#373737" stroke-width="3"/>
<rect x="28.6562" y="63.3262" width="4.5825" height="25.9856" rx="2" transform="rotate(-90 28.6562 63.3262)" fill="#363636"/>
<rect width="4.5825" height="25.9856" rx="2" transform="matrix(-1.18634e-08 1 1 1.19867e-08 29.3242 -0.000488281)" fill="#363636"/>
<rect width="1.19204" height="14.134" rx="0.596022" transform="matrix(0.357841 -0.933783 0.893169 0.449721 32.6543 54.6787)" fill="#363636"/>
<rect width="1.1812" height="14.2871" rx="0.590599" transform="matrix(0.434956 0.900452 0.844307 -0.535859 35.3203 8.03613)" fill="#363636"/>
<rect x="13.332" y="35.8311" width="6.11001" height="16.6575" rx="2" transform="rotate(-90 13.332 35.8311)" fill="#363636"/>
<rect x="4" y="57.2168" width="48.1163" height="18.6564" rx="9.32818" transform="rotate(-90 4 57.2168)" fill="#363636"/>
<rect x="7.33203" y="57.2168" width="48.1163" height="17.9901" rx="8.99503" transform="rotate(-90 7.33203 57.2168)" fill="#58595B"/>
</g>
<path fill-rule="evenodd" clip-rule="evenodd" d="M132 78V-49L68.9007 -49L68.9007 78H-69V145L68.9007 145H132V78ZM-168 78H-130V145H-168V78Z" fill="#D9D9D9"/>
</g>
<defs>
<filter id="filter0_d_0_1" x="0" y="-0.000488281" width="66.0938" height="71.3267" filterUnits="userSpaceOnUse" color-interpolation-filters="sRGB">
<feFlood flood-opacity="0" result="BackgroundImageFix"/>
<feColorMatrix in="SourceAlpha" type="matrix" values="0 0 0 0 0 0 0 0 0 0 0 0 0 0 0 0 0 0 127 0" result="hardAlpha"/>
<feOffset dy="4"/>
<feGaussianBlur stdDeviation="2"/>
<feComposite in2="hardAlpha" operator="out"/>
<feColorMatrix type="matrix" values="0 0 0 0 0 0 0 0 0 0 0 0 0 0 0 0 0 0 0.25 0"/>
<feBlend mode="normal" in2="BackgroundImageFix" result="effect1_dropShadow_0_1"/>
<feBlend mode="normal" in="SourceGraphic" in2="effect1_dropShadow_0_1" result="shape"/>
</filter>
<clipPath id="clip0_0_1">
<rect width="634" height="634" fill="white" transform="translate(-168 -257)"/>
</clipPath>
</defs>
</svg>
