<svg xmlns="http://www.w3.org/2000/svg" width="67" height="72" fill="none" viewBox="0 0 67 72"><rect width="67" height="72" fill="#262121"/><g clip-path="url(#clip0_0_1)"><rect width="634" height="634" fill="#fff" transform="translate(-168 -257)"/><g filter="url(#filter0_d_0_1)"><rect width="3.66" height="44.275" fill="#363636" rx="1.83" transform="matrix(-0.728297 -0.685262 0.582222 -0.81303 36.6543 48.8149)"/><rect width="3.912" height="47.083" fill="#363636" rx="1.956" transform="matrix(-0.657396 0.753546 0.657396 0.753546 31.8945 12.9429)"/><rect width="51.116" height="25.654" x="28.49" y="57.188" fill="#58595B" stroke="#373737" stroke-width="3" rx="12.827" transform="rotate(-90 28.4902 57.1885)"/><rect width="4.582" height="25.986" x="28.656" y="63.326" fill="#363636" rx="2" transform="rotate(-90 28.6562 63.3262)"/><rect width="4.582" height="25.986" fill="#363636" rx="2" transform="matrix(-1.18634e-08 1 1 1.19867e-08 29.3242 -0.000488281)"/><rect width="1.192" height="14.134" fill="#363636" rx=".596" transform="matrix(0.357841 -0.933783 0.893169 0.449721 32.6543 54.6787)"/><rect width="1.181" height="14.287" fill="#363636" rx=".591" transform="matrix(0.434956 0.900452 0.844307 -0.535859 35.3203 8.03613)"/><rect width="6.11" height="16.657" x="13.332" y="35.831" fill="#363636" rx="2" transform="rotate(-90 13.332 35.8311)"/><rect width="48.116" height="18.656" x="4" y="57.217" fill="#363636" rx="9.328" transform="rotate(-90 4 57.2168)"/><rect width="48.116" height="17.99" x="7.332" y="57.217" fill="#58595B" rx="8.995" transform="rotate(-90 7.33203 57.2168)"/></g><path fill="#D9D9D9" fill-rule="evenodd" d="M132 78V-49L68.9007 -49L68.9007 78H-69V145L68.9007 145H132V78ZM-168 78H-130V145H-168V78Z" clip-rule="evenodd"/></g><defs><filter id="filter0_d_0_1" width="66.094" height="71.327" x="0" y="0" color-interpolation-filters="sRGB" filterUnits="userSpaceOnUse"><feFlood flood-opacity="0" result="BackgroundImageFix"/><feColorMatrix in="SourceAlpha" result="hardAlpha" type="matrix" values="0 0 0 0 0 0 0 0 0 0 0 0 0 0 0 0 0 0 127 0"/><feOffset dy="4"/><feGaussianBlur stdDeviation="2"/><feComposite in2="hardAlpha" operator="out"/><feColorMatrix type="matrix" values="0 0 0 0 0 0 0 0 0 0 0 0 0 0 0 0 0 0 0.25 0"/><feBlend in2="BackgroundImageFix" mode="normal" result="effect1_dropShadow_0_1"/><feBlend in="SourceGraphic" in2="effect1_dropShadow_0_1" mode="normal" result="shape"/></filter><clipPath id="clip0_0_1"><rect width="634" height="634" fill="#fff" transform="translate(-168 -257)"/></clipPath></defs></svg>