<svg width="24" height="24" viewBox="0 0 24 24" fill="none" xmlns="http://www.w3.org/2000/svg">
<path fill-rule="evenodd" clip-rule="evenodd" d="M17.4527 3.13151C17.7887 2.07931 17.2082 0.953889 16.156 0.617814L15.0024 0.249357C13.9502 -0.0867179 12.8248 0.493815 12.4887 1.54602L10.2133 8.67004L3.01499 6.37088C1.96279 6.03481 0.837368 6.61534 0.501293 7.66754L0.132837 8.82113C-0.203239 9.87333 0.377294 10.9987 1.42949 11.3348L8.62781 13.634L6.37286 20.6939C6.03678 21.7461 6.61732 22.8715 7.66952 23.2076L8.8231 23.576C9.8753 23.9121 11.0007 23.3316 11.3368 22.2794L13.5917 15.2195L20.5774 17.4507C21.6296 17.7868 22.755 17.2062 23.0911 16.154L23.4595 15.0004C23.7956 13.9482 23.2151 12.8228 22.1629 12.4868L15.1772 10.2555L17.4527 3.13151Z" fill="#FF0000" fill-opacity="0.2"/>
</svg>
