<svg width="107" height="65" viewBox="0 0 107 65" fill="none" xmlns="http://www.w3.org/2000/svg">
<path d="M4.05797 20L35 20L32.4638 41H0L4.05797 20Z" fill="#EFEFEF"/>
<path d="M103 24L74.5 24L75 45H107L103 24Z" fill="#D1D1D1"/>
<path d="M34.5 0L72.5 0L77 31L31 31L34.5 0Z" fill="white"/>
<path d="M73.5 62L35.5 62L31 31L77 31L73.5 62Z" fill="#AEAEAE"/>
<path d="M35.5 62L6 62L1.83588e-06 41L32.5 41L35.5 62Z" fill="#AEAEAE"/>
<path d="M73.5 62L101.085 62L107 45L75.3044 45L73.5 62Z" fill="#AEAEAE"/>
<path d="M50.54 43.58V40.4H56.08V55H52.52V43.58H50.54Z" fill="#2C2C2C"/>
<path d="M15.624 54.808C15.9867 54.52 16.152 54.3867 16.12 54.408C17.1653 53.544 17.9867 52.8347 18.584 52.28C19.192 51.7253 19.704 51.144 20.12 50.536C20.536 49.928 20.744 49.336 20.744 48.76C20.744 48.3227 20.6427 47.9813 20.44 47.736C20.2373 47.4907 19.9333 47.368 19.528 47.368C19.1227 47.368 18.8027 47.5227 18.568 47.832C18.344 48.1307 18.232 48.5573 18.232 49.112H15.592C15.6133 48.2053 15.8053 47.448 16.168 46.84C16.5413 46.232 17.0267 45.784 17.624 45.496C18.232 45.208 18.904 45.064 19.64 45.064C20.9093 45.064 21.864 45.3893 22.504 46.04C23.1547 46.6907 23.48 47.5387 23.48 48.584C23.48 49.7253 23.0907 50.7867 22.312 51.768C21.5333 52.7387 20.5413 53.688 19.336 54.616H23.656V56.84H15.624V54.808Z" fill="#2C2C2C"/>
<path d="M86.714 51.664C86.7513 50.6653 87.078 49.8953 87.694 49.354C88.31 48.8127 89.1453 48.542 90.2 48.542C90.9 48.542 91.4973 48.6633 91.992 48.906C92.496 49.1487 92.874 49.48 93.126 49.9C93.3873 50.32 93.518 50.7913 93.518 51.314C93.518 51.93 93.364 52.434 93.056 52.826C92.748 53.2087 92.3887 53.47 91.978 53.61V53.666C92.51 53.8433 92.93 54.1373 93.238 54.548C93.546 54.9587 93.7 55.486 93.7 56.13C93.7 56.7087 93.5647 57.222 93.294 57.67C93.0327 58.1087 92.6453 58.454 92.132 58.706C91.628 58.958 91.026 59.084 90.326 59.084C89.206 59.084 88.31 58.8087 87.638 58.258C86.9753 57.7073 86.6253 56.8767 86.588 55.766H88.912C88.9213 56.1767 89.038 56.5033 89.262 56.746C89.486 56.9793 89.8127 57.096 90.242 57.096C90.606 57.096 90.886 56.9933 91.082 56.788C91.2873 56.5733 91.39 56.2933 91.39 55.948C91.39 55.5 91.2453 55.178 90.956 54.982C90.676 54.7767 90.2233 54.674 89.598 54.674H89.15V52.728H89.598C90.074 52.728 90.4567 52.6487 90.746 52.49C91.0447 52.322 91.194 52.028 91.194 51.608C91.194 51.272 91.1007 51.0107 90.914 50.824C90.7273 50.6373 90.4707 50.544 90.144 50.544C89.7893 50.544 89.5233 50.6513 89.346 50.866C89.178 51.0807 89.08 51.3467 89.052 51.664H86.714Z" fill="#2C2C2C"/>
</svg>
