<svg xmlns="http://www.w3.org/2000/svg" width="63" height="72" fill="none" viewBox="0 0 63 72"><rect width="72" height="19" x="63" fill="#6E6B6B" rx="2" transform="rotate(90 63 0)"/><mask id="path-2-inside-1_748_3637" fill="#fff"><path d="M44 19L44 54L11 54C9.89543 54 9 53.1046 9 52L9 19L44 19Z"/></mask><path fill="#D9D9D9" d="M44 19L44 54L11 54C9.89543 54 9 53.1046 9 52L9 19L44 19Z"/><path fill="#9F9F9F" d="M44 19L44 54L44 19ZM9 54L9 19L9 54ZM9 19L44 19L9 19ZM44 54.25L11.25 54.25C10.0074 54.25 9 53.2426 9 52C9 52.9665 9.89543 53.75 11 53.75L44 53.75L44 54.25Z" mask="url(#path-2-inside-1_748_3637)"/><rect width="63" height="19" x="63" y="19" fill="#6E6B6B" rx="2" transform="rotate(-180 63 19)"/><rect width="63" height="18" x="63" y="72" fill="#6E6B6B" rx="2" transform="rotate(-180 63 72)"/></svg>