<svg width="118" height="31" viewBox="0 0 118 31" fill="none" xmlns="http://www.w3.org/2000/svg">
<path d="M18 1.84V2.56H9.8V30H9V2.56H0.8V1.84H18ZM22.9891 13.64C23.8424 9.82667 26.6824 7.92 31.5091 7.92V8.8H31.1491C28.8824 8.8 26.9491 9.46667 25.3491 10.8C23.7757 12.1067 22.9891 14.2267 22.9891 17.16V30H22.1891V8.4H22.9891V13.64ZM34.7047 19.2C34.7047 16.9333 35.1447 14.9733 36.0247 13.32C36.9047 11.64 38.1447 10.36 39.7447 9.48C41.3447 8.57333 43.1714 8.12 45.2247 8.12C47.7047 8.12 49.798 8.77333 51.5047 10.08C53.238 11.36 54.398 13 54.9847 15V8.4H55.7447V30H54.9847V23.4C54.398 25.4 53.238 27.0533 51.5047 28.36C49.798 29.64 47.7047 30.28 45.2247 30.28C43.1714 30.28 41.3447 29.84 39.7447 28.96C38.1447 28.0533 36.9047 26.7733 36.0247 25.12C35.1447 23.44 34.7047 21.4667 34.7047 19.2ZM54.9847 19.2C54.9847 17.1467 54.558 15.3467 53.7047 13.8C52.878 12.2267 51.718 11.0133 50.2247 10.16C48.758 9.28 47.0914 8.84 45.2247 8.84C43.2514 8.84 41.5314 9.25333 40.0647 10.08C38.6247 10.9067 37.5047 12.1067 36.7047 13.68C35.9047 15.2267 35.5047 17.0667 35.5047 19.2C35.5047 21.3333 35.9047 23.1867 36.7047 24.76C37.5047 26.3067 38.6247 27.4933 40.0647 28.32C41.5314 29.1467 43.2514 29.56 45.2247 29.56C47.0914 29.56 48.758 29.1333 50.2247 28.28C51.718 27.4 52.878 26.1867 53.7047 24.64C54.558 23.0667 54.9847 21.2533 54.9847 19.2ZM61.5406 19.2C61.5406 16.9333 61.9806 14.96 62.8606 13.28C63.7673 11.6 65.0073 10.32 66.5806 9.44C68.154 8.56 69.9406 8.12 71.9406 8.12C74.6873 8.12 76.9273 8.82667 78.6606 10.24C80.4206 11.6267 81.4873 13.4533 81.8606 15.72H81.0606C80.714 13.5867 79.714 11.9067 78.0606 10.68C76.4073 9.45333 74.3673 8.84 71.9406 8.84C70.2073 8.84 68.6073 9.22667 67.1406 10C65.7006 10.7467 64.5406 11.8933 63.6606 13.44C62.7806 14.9867 62.3406 16.9067 62.3406 19.2C62.3406 21.4933 62.7806 23.4133 63.6606 24.96C64.5406 26.5067 65.7006 27.6667 67.1406 28.44C68.6073 29.1867 70.2073 29.56 71.9406 29.56C74.3673 29.56 76.4073 28.9467 78.0606 27.72C79.714 26.4933 80.714 24.8133 81.0606 22.68H81.8606C81.4873 24.9467 80.4206 26.7867 78.6606 28.2C76.9273 29.5867 74.6873 30.28 71.9406 30.28C69.9406 30.28 68.154 29.84 66.5806 28.96C65.0073 28.08 63.7673 26.8 62.8606 25.12C61.9806 23.44 61.5406 21.4667 61.5406 19.2ZM98.4178 30L88.4578 19.88V30H87.6578V0.4H88.4578V18.28L98.2178 8.4H99.3778L88.7378 19.12L99.5378 30H98.4178ZM110.399 30.28C108.026 30.28 106.106 29.8 104.639 28.84C103.199 27.88 102.359 26.4267 102.119 24.48H102.919C103.079 26.08 103.786 27.3333 105.039 28.24C106.319 29.12 108.119 29.56 110.439 29.56C111.612 29.56 112.639 29.3333 113.519 28.88C114.426 28.4267 115.119 27.8267 115.599 27.08C116.079 26.3067 116.319 25.48 116.319 24.6C116.319 23.64 116.039 22.8667 115.479 22.28C114.946 21.6667 114.266 21.2 113.439 20.88C112.639 20.56 111.532 20.2133 110.119 19.84C108.546 19.44 107.266 19.04 106.279 18.64C105.319 18.24 104.492 17.6267 103.799 16.8C103.132 15.9733 102.799 14.88 102.799 13.52C102.799 12.56 103.092 11.6667 103.679 10.84C104.266 10.0133 105.066 9.36 106.079 8.88C107.119 8.37333 108.279 8.12 109.559 8.12C111.746 8.12 113.506 8.66666 114.839 9.76C116.172 10.8533 116.892 12.3733 116.999 14.32H116.199C116.119 12.72 115.506 11.4133 114.359 10.4C113.239 9.36 111.639 8.84 109.559 8.84C108.439 8.84 107.426 9.05333 106.519 9.48C105.612 9.90667 104.892 10.48 104.359 11.2C103.852 11.92 103.599 12.6933 103.599 13.52C103.599 14.6933 103.906 15.64 104.519 16.36C105.132 17.08 105.879 17.6133 106.759 17.96C107.666 18.3067 108.866 18.68 110.359 19.08C111.879 19.5067 113.066 19.8933 113.919 20.24C114.799 20.5867 115.546 21.12 116.159 21.84C116.772 22.5333 117.079 23.4533 117.079 24.6C117.079 25.6667 116.786 26.64 116.199 27.52C115.612 28.3733 114.812 29.0533 113.799 29.56C112.786 30.04 111.652 30.28 110.399 30.28Z" fill="black"/>
</svg>
