<svg width="73" height="19" viewBox="0 0 73 19" fill="none" xmlns="http://www.w3.org/2000/svg">
<path d="M11.28 1.152V2.064H6.48V18H5.4V2.064H0.6V1.152H11.28ZM14.9308 7.656C15.2508 6.696 15.8188 5.968 16.6348 5.472C17.4508 4.96 18.4908 4.704 19.7548 4.704V5.832H19.3948C18.1148 5.832 17.0508 6.2 16.2028 6.936C15.3548 7.656 14.9308 8.84 14.9308 10.488V18H13.8508V4.968H14.9308V7.656ZM21.5694 11.472C21.5694 10.128 21.8334 8.952 22.3614 7.944C22.9054 6.936 23.6494 6.16 24.5934 5.616C25.5534 5.072 26.6414 4.8 27.8574 4.8C29.2334 4.8 30.4014 5.136 31.3614 5.808C32.3214 6.48 32.9934 7.336 33.3774 8.376V4.968H34.4574V18H33.3774V14.568C32.9934 15.624 32.3134 16.496 31.3374 17.184C30.3774 17.856 29.2174 18.192 27.8574 18.192C26.6414 18.192 25.5534 17.92 24.5934 17.376C23.6494 16.816 22.9054 16.032 22.3614 15.024C21.8334 14 21.5694 12.816 21.5694 11.472ZM33.3774 11.472C33.3774 10.336 33.1374 9.336 32.6574 8.472C32.1934 7.592 31.5534 6.92 30.7374 6.456C29.9214 5.976 29.0094 5.736 28.0014 5.736C26.9454 5.736 26.0174 5.968 25.2174 6.432C24.4174 6.88 23.7934 7.536 23.3454 8.4C22.8974 9.264 22.6734 10.288 22.6734 11.472C22.6734 12.656 22.8974 13.68 23.3454 14.544C23.7934 15.408 24.4174 16.072 25.2174 16.536C26.0334 17 26.9614 17.232 28.0014 17.232C29.0094 17.232 29.9214 17 30.7374 16.536C31.5694 16.056 32.2174 15.384 32.6814 14.52C33.1454 13.64 33.3774 12.624 33.3774 11.472ZM37.7179 11.472C37.7179 10.112 37.9819 8.928 38.5099 7.92C39.0539 6.912 39.7979 6.144 40.7419 5.616C41.7019 5.072 42.7979 4.8 44.0299 4.8C45.6619 4.8 46.9979 5.208 48.0379 6.024C49.0939 6.84 49.7499 7.936 50.0059 9.312H48.8779C48.6699 8.192 48.1259 7.312 47.2459 6.672C46.3819 6.032 45.3099 5.712 44.0299 5.712C43.0699 5.712 42.1979 5.928 41.4139 6.36C40.6299 6.776 39.9979 7.424 39.5179 8.304C39.0539 9.168 38.8219 10.224 38.8219 11.472C38.8219 12.736 39.0539 13.8 39.5179 14.664C39.9979 15.528 40.6299 16.176 41.4139 16.608C42.1979 17.04 43.0699 17.256 44.0299 17.256C45.3099 17.256 46.3819 16.936 47.2459 16.296C48.1259 15.656 48.6699 14.776 48.8779 13.656H50.0059C49.7499 15.016 49.0939 16.112 48.0379 16.944C46.9819 17.776 45.6459 18.192 44.0299 18.192C42.7979 18.192 41.7019 17.92 40.7419 17.376C39.7979 16.832 39.0539 16.056 38.5099 15.048C37.9819 14.024 37.7179 12.832 37.7179 11.472ZM60.0641 18L54.3761 12.024V18H53.2961V0.24H54.3761V10.872L59.9681 4.968H61.4801L55.1681 11.448L61.5521 18H60.0641ZM69.1301 1.92V0.935999H72.6821V18H71.6021V1.92H69.1301Z" fill="white"/>
</svg>
