<svg width="83" height="19" viewBox="0 0 83 19" fill="none" xmlns="http://www.w3.org/2000/svg">
<path d="M11.28 1.152V2.064H6.48V18H5.4V2.064H0.6V1.152H11.28ZM14.9308 7.656C15.2508 6.696 15.8188 5.968 16.6348 5.472C17.4508 4.96 18.4908 4.704 19.7548 4.704V5.832H19.3948C18.1148 5.832 17.0508 6.2 16.2028 6.936C15.3548 7.656 14.9308 8.84 14.9308 10.488V18H13.8508V4.968H14.9308V7.656ZM21.5694 11.472C21.5694 10.128 21.8334 8.952 22.3614 7.944C22.9054 6.936 23.6494 6.16 24.5934 5.616C25.5534 5.072 26.6414 4.8 27.8574 4.8C29.2334 4.8 30.4014 5.136 31.3614 5.808C32.3214 6.48 32.9934 7.336 33.3774 8.376V4.968H34.4574V18H33.3774V14.568C32.9934 15.624 32.3134 16.496 31.3374 17.184C30.3774 17.856 29.2174 18.192 27.8574 18.192C26.6414 18.192 25.5534 17.92 24.5934 17.376C23.6494 16.816 22.9054 16.032 22.3614 15.024C21.8334 14 21.5694 12.816 21.5694 11.472ZM33.3774 11.472C33.3774 10.336 33.1374 9.336 32.6574 8.472C32.1934 7.592 31.5534 6.92 30.7374 6.456C29.9214 5.976 29.0094 5.736 28.0014 5.736C26.9454 5.736 26.0174 5.968 25.2174 6.432C24.4174 6.88 23.7934 7.536 23.3454 8.4C22.8974 9.264 22.6734 10.288 22.6734 11.472C22.6734 12.656 22.8974 13.68 23.3454 14.544C23.7934 15.408 24.4174 16.072 25.2174 16.536C26.0334 17 26.9614 17.232 28.0014 17.232C29.0094 17.232 29.9214 17 30.7374 16.536C31.5694 16.056 32.2174 15.384 32.6814 14.52C33.1454 13.64 33.3774 12.624 33.3774 11.472ZM37.7179 11.472C37.7179 10.112 37.9819 8.928 38.5099 7.92C39.0539 6.912 39.7979 6.144 40.7419 5.616C41.7019 5.072 42.7979 4.8 44.0299 4.8C45.6619 4.8 46.9979 5.208 48.0379 6.024C49.0939 6.84 49.7499 7.936 50.0059 9.312H48.8779C48.6699 8.192 48.1259 7.312 47.2459 6.672C46.3819 6.032 45.3099 5.712 44.0299 5.712C43.0699 5.712 42.1979 5.928 41.4139 6.36C40.6299 6.776 39.9979 7.424 39.5179 8.304C39.0539 9.168 38.8219 10.224 38.8219 11.472C38.8219 12.736 39.0539 13.8 39.5179 14.664C39.9979 15.528 40.6299 16.176 41.4139 16.608C42.1979 17.04 43.0699 17.256 44.0299 17.256C45.3099 17.256 46.3819 16.936 47.2459 16.296C48.1259 15.656 48.6699 14.776 48.8779 13.656H50.0059C49.7499 15.016 49.0939 16.112 48.0379 16.944C46.9819 17.776 45.6459 18.192 44.0299 18.192C42.7979 18.192 41.7019 17.92 40.7419 17.376C39.7979 16.832 39.0539 16.056 38.5099 15.048C37.9819 14.024 37.7179 12.832 37.7179 11.472ZM60.0641 18L54.3761 12.024V18H53.2961V0.24H54.3761V10.872L59.9681 4.968H61.4801L55.1681 11.448L61.5521 18H60.0641ZM80.3621 5.232C80.1861 4.08 79.7621 3.192 79.0901 2.568C78.4181 1.928 77.4981 1.608 76.3301 1.608C74.6821 1.608 73.4181 2.216 72.5381 3.432C71.6741 4.648 71.2421 6.616 71.2421 9.336L71.2661 10.272C71.5221 9.168 72.1381 8.296 73.1141 7.656C74.0901 7 75.2261 6.672 76.5221 6.672C78.2501 6.672 79.6021 7.192 80.5781 8.232C81.5541 9.272 82.0421 10.696 82.0421 12.504C82.0421 13.528 81.8501 14.464 81.4661 15.312C81.0821 16.16 80.4741 16.84 79.6421 17.352C78.8101 17.864 77.7701 18.12 76.5221 18.12C74.1221 18.12 72.4821 17.368 71.6021 15.864C70.7221 14.344 70.2821 12.256 70.2821 9.6C70.2821 6.736 70.7541 4.536 71.6981 3C72.6581 1.464 74.2021 0.696 76.3301 0.696C77.8181 0.696 78.9861 1.112 79.8341 1.944C80.6981 2.76 81.2181 3.856 81.3941 5.232H80.3621ZM76.3541 7.608C75.5381 7.608 74.7541 7.776 74.0021 8.112C73.2501 8.448 72.6341 8.96 72.1541 9.648C71.6901 10.32 71.4581 11.144 71.4581 12.12C71.4581 13.016 71.6341 13.856 71.9861 14.64C72.3541 15.408 72.9141 16.032 73.6661 16.512C74.4181 16.976 75.3541 17.208 76.4741 17.208C77.8501 17.208 78.9461 16.792 79.7621 15.96C80.5781 15.128 80.9861 13.984 80.9861 12.528C80.9861 10.96 80.5781 9.752 79.7621 8.904C78.9461 8.04 77.8101 7.608 76.3541 7.608Z" fill="white"/>
</svg>
