<svg width="215" height="26" viewBox="0 0 215 26" fill="none" xmlns="http://www.w3.org/2000/svg">
<path d="M30.7191 0H19.239L0 25.4967H11.4801L30.7191 0Z" fill="#101010"/>
<path d="M15.3599 25.4967H26.8332L46.0722 0H34.5989L15.3599 25.4967Z" fill="#101010"/>
<path d="M61.4311 0H49.9579L30.7189 25.4967H42.1921L61.4311 0Z" fill="#101010"/>
<path d="M76.7848 0H65.3116L46.0726 25.4967H57.5458L76.7848 0Z" fill="#101010"/>
<path d="M92.1438 0H80.6705L61.4315 25.4967H72.9047L92.1438 0Z" fill="#101010"/>
<path d="M107.496 0H96.0228L76.7838 25.4967H88.257L107.496 0Z" fill="#101010"/>
<path d="M92.1437 25.4967H103.617L122.856 0H111.383L92.1437 25.4967Z" fill="#101010"/>
<path d="M107.496 25.4967H118.977L138.216 0H126.742L107.496 25.4967Z" fill="#101010"/>
<path d="M122.856 25.4967H134.329L153.568 0H142.095L122.856 25.4967Z" fill="#101010"/>
<path d="M138.216 25.4967H149.689L168.928 0H157.455L138.216 25.4967Z" fill="#101010"/>
<path d="M153.568 25.4967H165.042L184.281 0H172.807L153.568 25.4967Z" fill="white"/>
<path d="M199.64 0H188.167L168.928 25.4967H180.401L199.64 0Z" fill="white"/>
<path d="M184.281 25.4967H195.761L215 0H203.52L184.281 25.4967Z" fill="white"/>
<path d="M169 5.04579L153.568 25.4967H165.042L169 20.2508V5.04579Z" fill="#101010"/>
</svg>
